<svg width="127" height="127" viewBox="0 0 127 127" fill="none" xmlns="http://www.w3.org/2000/svg">
<g id="Ellipse 19">
<mask id="path-1-inside-1_481_1828" fill="white">
<path d="M127 127C127 110.322 123.715 93.8076 117.333 78.3992C110.95 62.9909 101.596 48.9905 89.8026 37.1974C78.0095 25.4044 64.0091 16.0496 48.6008 9.6673C33.1924 3.28495 16.6779 -7.29013e-07 -7.62939e-06 0L0 63.5C8.33894 63.5 16.5962 65.1425 24.3004 68.3336C32.0046 71.5248 39.0048 76.2022 44.9013 82.0987C50.7978 87.9952 55.4752 94.9954 58.6664 102.7C61.8575 110.404 63.5 118.661 63.5 127H127Z"/>
</mask>
<path d="M127 127C127 110.322 123.715 93.8076 117.333 78.3992C110.95 62.9909 101.596 48.9905 89.8026 37.1974C78.0095 25.4044 64.0091 16.0496 48.6008 9.6673C33.1924 3.28495 16.6779 -7.29013e-07 -7.62939e-06 0L0 63.5C8.33894 63.5 16.5962 65.1425 24.3004 68.3336C32.0046 71.5248 39.0048 76.2022 44.9013 82.0987C50.7978 87.9952 55.4752 94.9954 58.6664 102.7C61.8575 110.404 63.5 118.661 63.5 127H127Z" fill="#038562" stroke="#038562" stroke-width="2" mask="url(#path-1-inside-1_481_1828)"/>
</g>
</svg>
